<svg width="895" height="376" viewBox="0 0 895 376" fill="none" xmlns="http://www.w3.org/2000/svg">
<path opacity="0.147" fill-rule="evenodd" clip-rule="evenodd" d="M533.5 243.5C543.242 235.975 554.409 232.309 567 232.5C580.661 232.498 592.828 236.664 603.5 245C607.642 249.654 609.808 255.154 610 261.5C613.185 255.623 616.185 249.623 619 243.5C619.949 241.907 621.115 240.574 622.5 239.5C612.512 262.812 602.512 286.145 592.5 309.5C600.813 310.665 609.147 310.832 617.5 310C619.53 306.411 620.863 302.578 621.5 298.5C630.833 298.5 640.167 298.5 649.5 298.5C650.531 302.427 651.865 306.261 653.5 310C662.167 310.667 670.833 310.667 679.5 310C668.763 286.691 658.43 263.191 648.5 239.5C640.528 238.502 632.528 238.169 624.5 238.5C626.995 236.286 629.995 235.119 633.5 235C641.222 234.188 648.889 234.522 656.5 236C659.249 237.123 661.749 238.623 664 240.5C668.197 248.233 672.364 255.9 676.5 263.5C677.257 257.486 678.091 251.486 679 245.5C679.6 243.09 680.766 241.09 682.5 239.5C682.5 263.167 682.5 286.833 682.5 310.5C690.833 310.5 699.167 310.5 707.5 310.5C707.5 286.5 707.5 262.5 707.5 238.5C699.833 238.5 692.167 238.5 684.5 238.5C686.958 236.287 689.958 235.121 693.5 235C702.365 233.929 711.032 234.762 719.5 237.5C729.781 233.773 740.114 233.606 750.5 237C754.258 238.923 757.591 241.423 760.5 244.5C761.852 243.476 763.185 242.476 764.5 241.5C764.5 247.833 764.5 254.167 764.5 260.5C764.806 263.385 764.473 266.052 763.5 268.5C755.523 258.853 747.523 249.186 739.5 239.5C732.197 238.503 724.863 238.169 717.5 238.5C717.5 262.5 717.5 286.5 717.5 310.5C725.5 310.5 733.5 310.5 741.5 310.5C742.167 300.5 742.833 290.5 743.5 280.5C751.593 290.436 759.927 300.269 768.5 310C775.492 310.5 782.492 310.666 789.5 310.5C789.5 286.5 789.5 262.5 789.5 238.5C782.167 238.5 774.833 238.5 767.5 238.5C769.958 236.287 772.958 235.121 776.5 235C784.319 234.032 791.986 234.699 799.5 237C804.423 240.058 806.923 244.558 807 250.5C807.667 271.5 807.667 292.5 807 313.5C806.5 323.333 801.333 328.5 791.5 329C779.3 331.103 768.8 327.936 760 319.5C756.385 325.1 751.218 328.267 744.5 329C735.967 330.043 727.634 329.209 719.5 326.5C713.519 328.596 707.352 329.596 701 329.5C688.515 329.016 676.015 328.849 663.5 329C656.661 328.415 651.661 325.081 648.5 319C644.5 317 640.5 317 636.5 319C633.339 325.081 628.339 328.415 621.5 329C611.817 330.101 602.317 329.268 593 326.5C572.331 333.27 552.498 331.603 533.5 321.5C530.72 323.103 528.054 324.937 525.5 327C522.899 327.92 520.232 328.587 517.5 329C501.167 329.667 484.833 329.667 468.5 329C465.628 328.685 462.795 328.185 460 327.5C450.104 330.314 440.271 330.147 430.5 327C426.711 324.873 423.211 322.373 420 319.5C416.385 325.1 411.218 328.267 404.5 329C395.967 330.043 387.634 329.209 379.5 326.5C376.252 327.645 372.919 328.479 369.5 329C357.323 328.665 345.156 328.832 333 329.5C322.48 331.153 314.313 327.653 308.5 319C304.5 317 300.5 317 296.5 319C293.339 325.081 288.339 328.415 281.5 329C266.5 329.667 251.5 329.667 236.5 329C232.073 328.202 227.906 326.702 224 324.5C217.681 328.132 210.848 329.799 203.5 329.5C199.111 329.455 194.777 328.955 190.5 328C187.381 326.357 184.215 324.857 181 323.5C174.103 326.349 166.936 328.183 159.5 329C145.167 329.667 130.833 329.667 116.5 329C106.667 328.5 101.5 323.333 101 313.5C100.333 292.5 100.333 271.5 101 250.5C101.121 246.958 102.287 243.958 104.5 241.5C104.5 264.5 104.5 287.5 104.5 310.5C123.208 310.919 141.875 310.419 160.5 309C175.765 303.21 179.598 293.043 172 278.5C169.436 276.273 166.603 274.439 163.5 273C170.867 268.093 173.701 261.26 172 252.5C168.3 244.158 161.8 239.658 152.5 239C137.504 238.5 122.504 238.333 107.5 238.5C109.958 236.287 112.958 235.121 116.5 235C133.202 234.109 149.869 234.443 166.5 236C171.283 237.559 175.95 239.393 180.5 241.5C181.584 241.315 182.584 240.982 183.5 240.5C183.5 263.833 183.5 287.167 183.5 310.5C191.833 310.5 200.167 310.5 208.5 310.5C208.5 304.5 208.5 298.5 208.5 292.5C210.527 292.338 212.527 292.505 214.5 293C218.539 298.242 222.205 303.742 225.5 309.5C242.833 310.833 260.167 310.833 277.5 309.5C278.833 306.167 280.167 302.833 281.5 299.5C290.482 298.335 299.482 298.168 308.5 299C310.135 302.739 311.469 306.573 312.5 310.5C321.192 310.831 329.859 310.498 338.5 309.5C328.431 286.125 318.264 262.792 308 239.5C300.253 238.518 292.42 238.185 284.5 238.5C286.995 236.286 289.995 235.119 293.5 235C301.222 234.188 308.889 234.522 316.5 236C319.249 237.123 321.749 238.623 324 240.5C328.197 248.233 332.364 255.9 336.5 263.5C337.257 257.486 338.091 251.486 339 245.5C339.2 243.68 340.034 242.347 341.5 241.5C341.5 264.5 341.5 287.5 341.5 310.5C349.833 310.5 358.167 310.5 366.5 310.5C366.5 286.5 366.5 262.5 366.5 238.5C359.167 238.5 351.833 238.5 344.5 238.5C346.958 236.287 349.958 235.121 353.5 235C362.365 233.929 371.032 234.762 379.5 237.5C389.781 233.773 400.114 233.606 410.5 237C414.258 238.923 417.591 241.423 420.5 244.5C421.852 243.476 423.185 242.476 424.5 241.5C424.666 250.839 424.5 260.173 424 269.5C415.619 259.241 407.119 249.074 398.5 239C391.508 238.5 384.508 238.334 377.5 238.5C377.5 262.5 377.5 286.5 377.5 310.5C385.5 310.5 393.5 310.5 401.5 310.5C401.334 300.161 401.5 289.828 402 279.5C410.857 289.389 419.357 299.556 427.5 310C434.492 310.5 441.492 310.666 448.5 310.5C448.5 286.5 448.5 262.5 448.5 238.5C441.5 238.5 434.5 238.5 427.5 238.5C428.975 236.59 430.975 235.424 433.5 235C444.148 233.664 454.481 234.831 464.5 238.5C468.199 237.817 471.532 236.317 474.5 234C467.312 232.772 460.646 230.272 454.5 226.5C438.838 236.084 423.504 235.584 408.5 225C406.167 222 403.833 219 401.5 216C382.361 211.184 372.361 198.851 371.5 179C358.419 177.64 346.419 173.307 335.5 166C326.445 163.874 318.112 160.208 310.5 155C308.3 152.766 306.467 150.266 305 147.5C303.616 133.876 304.949 120.543 309 107.5C314.601 96.9077 320.601 86.5744 327 76.5C330.187 67.2472 334.687 58.7472 340.5 51C351.289 44.6067 362.622 39.2734 374.5 35C385.534 31.7706 394.034 34.9372 400 44.5C403.257 49.7725 405.423 55.4392 406.5 61.5C407.552 61.6495 408.552 61.4828 409.5 61C418.756 51.9683 429.756 48.9683 442.5 52C446.531 53.4323 450.364 55.2657 454 57.5C463.379 51.7685 473.546 49.9352 484.5 52C490.219 54.2755 495.385 57.4421 500 61.5C502.791 54.5856 506.124 47.919 510 41.5C516.416 34.7791 524.25 32.6125 533.5 35C545.378 39.2734 556.711 44.6067 567.5 51C573.313 58.7472 577.813 67.2472 581 76.5C587.432 86.5945 593.432 96.9278 599 107.5C602.531 120.609 603.864 133.942 603 147.5C598.725 154.099 592.892 158.932 585.5 162C575.692 164.266 566.692 168.266 558.5 174C551.351 176.477 544.017 178.144 536.5 179C535.619 198.868 525.619 211.201 506.5 216C504.212 218.743 502.045 221.577 500 224.5C496.996 226.674 494.163 229.008 491.5 231.5C498.645 232.736 505.645 234.57 512.5 237C517.793 239.893 522.626 243.393 527 247.5C529.059 245.93 531.226 244.597 533.5 243.5ZM374.5 85.5C377.898 85.1796 381.232 85.513 384.5 86.5C382.855 91.0819 381.521 95.7486 380.5 100.5C368.431 104.933 364.264 100.933 368 88.5C370.045 87.0735 372.212 86.0735 374.5 85.5ZM524.5 85.5C539.581 82.4057 544.247 87.9057 538.5 102C534.83 102.638 531.33 102.138 528 100.5C526.362 95.6137 525.195 90.6137 524.5 85.5Z" fill="#1D1D1B"/>
<path opacity="0.997" fill-rule="evenodd" clip-rule="evenodd" d="M373.5 37.5C375.827 37.6646 377.993 38.3313 380 39.5C382.667 44.8333 385.333 50.1667 388 55.5C388.667 57.1667 388.667 58.8333 388 60.5C381.904 63.5267 375.404 65.6933 368.5 67C363.074 67.2591 357.74 67.4258 352.5 67.5C349.809 73.5715 348.142 79.9048 347.5 86.5C349.218 94.763 349.718 103.096 349 111.5C346.626 115.75 344.126 119.916 341.5 124C344.309 124.18 346.976 123.513 349.5 122C354.49 109.332 363.823 104.165 377.5 106.5C376.327 110.533 374.827 114.533 373 118.5C369.14 137.962 376.973 149.128 396.5 152C398.708 153.836 400.042 156.169 400.5 159C403.567 160.164 405.233 159.164 405.5 156C404.886 151.431 402.553 148.098 398.5 146C381.293 144.418 374.793 135.251 379 118.5C381.473 113.695 384.973 109.862 389.5 107C381.905 90.1188 386.905 78.7855 404.5 73C406.712 70.0788 408.545 66.9121 410 63.5C420.739 52.8878 431.406 52.8878 442 63.5C443.652 97.4149 443.986 131.415 443 165.5C440.833 163.17 439.166 160.503 438 157.5C436.457 155.622 434.624 154.122 432.5 153C427.833 152.333 423.167 152.333 418.5 153C417.577 155.041 417.244 157.208 417.5 159.5C420.35 159.364 423.183 159.031 426 158.5C427.967 158.542 429.801 159.042 431.5 160C433.712 162.921 435.545 166.088 437 169.5C439 170.833 441 172.167 443 173.5C445.201 183.942 444.868 194.276 442 204.5C436.559 213.319 428.726 216.486 418.5 214C410.248 210.926 405.581 205.093 404.5 196.5C388.929 198.076 379.929 191.243 377.5 176C377.572 171.615 378.572 167.448 380.5 163.5C376.648 158.285 371.648 156.952 365.5 159.5C354.362 159.289 344.696 155.456 336.5 148C327.471 146.988 319.137 143.988 311.5 139C309.639 137.972 308.305 136.472 307.5 134.5C309.191 126.938 310.357 119.271 311 111.5C315.681 99.8054 321.681 88.8054 329 78.5C332.667 70.5 336.333 62.5 340 54.5C340.833 53.6667 341.667 52.8333 342.5 52C352.924 47.1183 363.257 42.285 373.5 37.5ZM374.5 85.5C372.212 86.0735 370.045 87.0735 368 88.5C364.264 100.933 368.431 104.933 380.5 100.5C381.521 95.7486 382.855 91.0819 384.5 86.5C381.232 85.513 377.898 85.1796 374.5 85.5Z" fill="#B9DD17"/>
<path opacity="0.999" fill-rule="evenodd" clip-rule="evenodd" d="M516.5 37.5C525.691 40.4257 534.691 43.9257 543.5 48C547.419 49.5403 550.919 51.7069 554 54.5C557.786 64.0735 562.12 73.4068 567 82.5C572.42 89.6668 577.087 97.3335 581 105.5C583.042 115.782 584.375 126.115 585 136.5C577.2 142.648 568.367 146.482 558.5 148C553.666 151.252 548.666 154.252 543.5 157C534.458 157.936 525.458 158.936 516.5 160C513.212 162.768 513.045 165.934 516 169.5C517.145 188.189 508.312 197.189 489.5 196.5C485.171 213.331 474.838 218.498 458.5 212C454.806 209.313 452.306 205.813 451 201.5C450.333 192.167 450.333 182.833 451 173.5C453 172.167 455 170.833 457 169.5C458.455 166.088 460.288 162.921 462.5 160C464.034 159.077 465.701 158.577 467.5 158.5C470.154 159.268 472.821 159.434 475.5 159C477.032 156.67 476.698 154.67 474.5 153C466.737 150.905 460.237 152.739 455 158.5C454.288 160.847 453.121 162.847 451.5 164.5C450.333 131.838 450.167 99.1718 451 66.5C456.645 56.059 465.145 52.8924 476.5 57C482.695 60.8574 487.028 66.1908 489.5 73C507.272 78.5519 512.272 89.8852 504.5 107C515.498 114.328 518.665 124.162 514 136.5C509.064 142.717 502.564 145.884 494.5 146C489.715 149.227 487.715 153.56 488.5 159C490.259 159.798 491.926 159.631 493.5 158.5C494.123 156.289 495.123 154.289 496.5 152.5C517.995 148.844 525.828 136.51 520 115.5C518.5 113.167 517 110.833 515.5 108.5C526.105 104.529 534.938 107.196 542 116.5C543.481 122.545 547.315 125.378 553.5 125C550.209 120.252 547.042 115.419 544 110.5C543.715 102.411 544.548 94.4113 546.5 86.5C545.453 79.6452 543.786 72.9785 541.5 66.5C533.826 66.6664 526.159 66.4997 518.5 66C514.399 64.3427 510.233 62.8427 506 61.5C506.511 52.1496 510.011 44.1496 516.5 37.5ZM524.5 85.5C525.195 90.6137 526.362 95.6137 528 100.5C531.33 102.138 534.83 102.638 538.5 102C544.247 87.9057 539.581 82.4057 524.5 85.5Z" fill="#B9DD17"/>
<path opacity="0.376" fill-rule="evenodd" clip-rule="evenodd" d="M424.5 69.5C429.766 70.2048 430.766 72.7048 427.5 77C428.756 78.8449 429.756 80.8449 430.5 83C430.355 83.772 430.022 84.4387 429.5 85C424.876 86.0559 422.043 84.2226 421 79.5C420.478 75.5644 421.645 72.231 424.5 69.5Z" fill="#221F21"/>
<path opacity="0.385" fill-rule="evenodd" clip-rule="evenodd" d="M466.5 69.5C470.665 70.1678 472.998 72.6678 473.5 77C472.863 79.245 472.03 81.4117 471 83.5C467.854 86.4317 465.354 86.0984 463.5 82.5C464.277 80.5534 465.277 78.7201 466.5 77C464.189 74.3312 464.189 71.8312 466.5 69.5Z" fill="#20201E"/>
<path opacity="0.32" fill-rule="evenodd" clip-rule="evenodd" d="M401.5 88.5C403.288 88.2148 404.955 88.5481 406.5 89.5C409.718 95.9839 415.051 98.8172 422.5 98C430.932 103.916 431.598 110.583 424.5 118C422.833 118.667 421.167 118.667 419.5 118C418.941 117.275 418.608 116.442 418.5 115.5C419.322 113.313 420.822 111.647 423 110.5C424.042 107.196 422.875 105.029 419.5 104C414.983 103.737 410.649 102.737 406.5 101C402.205 97.9069 400.538 93.7403 401.5 88.5Z" fill="#20201E"/>
<path opacity="0.381" fill-rule="evenodd" clip-rule="evenodd" d="M487.5 88.5C489.167 88.5 490.833 88.5 492.5 88.5C493.462 93.7403 491.795 97.9069 487.5 101C483.351 102.737 479.017 103.737 474.5 104C471.606 104.869 470.439 106.702 471 109.5C472.701 111.41 474.201 113.41 475.5 115.5C475.426 117.739 474.259 118.739 472 118.5C466.842 116.995 464.342 113.495 464.5 108C464.595 104.145 466.262 101.145 469.5 99C474.633 98.1251 479.633 96.7918 484.5 95C486.022 93.0838 487.022 90.9171 487.5 88.5Z" fill="#20201E"/>
<path opacity="0.323" fill-rule="evenodd" clip-rule="evenodd" d="M397.5 121.5C400.85 121.335 404.183 121.502 407.5 122C411.44 124.936 415.107 128.269 418.5 132C422.167 132.333 425.833 132.667 429.5 133C430.991 135.022 430.658 136.688 428.5 138C424.167 138.667 419.833 138.667 415.5 138C411.833 135.667 408.833 132.667 406.5 129C405 128.5 403.5 128 402 127.5C399.27 128.861 396.437 129.361 393.5 129C391.789 127.867 391.289 126.367 392 124.5C393.719 123.131 395.552 122.131 397.5 121.5Z" fill="#221F21"/>
<path opacity="0.381" fill-rule="evenodd" clip-rule="evenodd" d="M487.5 121.5C491.915 121.305 496.249 121.805 500.5 123C503.167 125 503.167 127 500.5 129C496.889 128.373 493.223 128.04 489.5 128C486.167 130 483.5 132.667 481.5 136C476.062 138.611 470.395 139.111 464.5 137.5C463.253 135.958 463.253 134.458 464.5 133C468.381 131.81 472.381 131.143 476.5 131C479.769 127.221 483.436 124.054 487.5 121.5Z" fill="#221F21"/>
<path opacity="0.349" fill-rule="evenodd" clip-rule="evenodd" d="M409.5 170.5C417.699 169.1 424.865 171.1 431 176.5C434.266 181.702 435.266 187.369 434 193.5C431.201 199.749 426.867 201.416 421 198.5C420.333 197.5 420.333 196.5 421 195.5C430.506 190.596 431.006 184.762 422.5 178C419.262 176.632 415.928 176.299 412.5 177C408.134 178.9 403.634 180.4 399 181.5C393.586 180.79 391.42 177.957 392.5 173C395.418 172.284 398.085 172.784 400.5 174.5C403.703 173.394 406.703 172.061 409.5 170.5Z" fill="#20201E"/>
<path opacity="0.316" fill-rule="evenodd" clip-rule="evenodd" d="M471.5 170.5C479.261 169.658 486.594 170.991 493.5 174.5C495.915 172.784 498.582 172.284 501.5 173C502.935 175.267 502.602 177.267 500.5 179C498.412 180.03 496.245 180.863 494 181.5C490.111 180.139 486.278 178.639 482.5 177C473.611 174.942 467.944 178.276 465.5 187C466.012 191.512 468.512 194.012 473 194.5C474.141 197.857 472.975 199.857 469.5 200.5C459.267 196.608 456.434 189.608 461 179.5C464.103 175.886 467.603 172.886 471.5 170.5Z" fill="#20201E"/>
<path opacity="0.128" fill-rule="evenodd" clip-rule="evenodd" d="M281.5 240.5C272.348 263.453 262.515 286.12 252 308.5C247.377 302.087 242.877 295.587 238.5 289C252.278 278.651 255.111 265.817 247 250.5C241.712 243.939 234.878 240.105 226.5 239C213.171 238.5 199.837 238.333 186.5 238.5C188.958 236.287 191.958 235.121 195.5 235C210.536 234.124 225.536 234.457 240.5 236C247.058 237.946 253.058 240.946 258.5 245C263.035 249.898 266.702 255.398 269.5 261.5C273.245 254.342 277.245 247.342 281.5 240.5Z" fill="#1D1D1B"/>
<path opacity="0.996" fill-rule="evenodd" clip-rule="evenodd" d="M478.5 236.5C488.222 235.894 497.222 238.061 505.5 243C515.619 253.611 516.119 264.777 507 276.5C502.135 281.7 496.968 286.533 491.5 291C499.159 291.5 506.826 291.666 514.5 291.5C514.5 297.833 514.5 304.167 514.5 310.5C495.167 310.5 475.833 310.5 456.5 310.5C456.334 305.156 456.501 299.823 457 294.5C466.641 285.528 476.307 276.528 486 267.5C487.687 264.376 487.854 261.209 486.5 258C479.6 254.892 474.434 256.725 471 263.5C464.754 260.294 458.587 256.96 452.5 253.5C458.219 243.308 466.885 237.642 478.5 236.5Z" fill="#B9DD17"/>
<path opacity="0.997" fill-rule="evenodd" clip-rule="evenodd" d="M533.5 243.5C552.969 233.257 571.636 234.423 589.5 247C591.329 248.113 592.163 249.613 592 251.5C587.199 255.299 582.699 259.466 578.5 264C577.5 264.667 576.5 264.667 575.5 264C569.765 257.923 562.765 255.923 554.5 258C544.924 263.163 541.757 270.997 545 281.5C549.798 290.976 557.298 293.976 567.5 290.5C568.496 284.537 568.829 278.537 568.5 272.5C575.833 272.5 583.167 272.5 590.5 272.5C590.82 283.082 590.487 293.582 589.5 304C570.934 314.806 552.268 315.14 533.5 305C516.999 289.813 514.165 272.313 525 252.5C528.038 249.631 530.871 246.631 533.5 243.5Z" fill="#B9DD17"/>
<path opacity="0.996" fill-rule="evenodd" clip-rule="evenodd" d="M107.5 238.5C122.504 238.333 137.504 238.5 152.5 239C161.8 239.658 168.3 244.158 172 252.5C173.701 261.26 170.867 268.093 163.5 273C166.603 274.439 169.436 276.273 172 278.5C179.598 293.043 175.765 303.21 160.5 309C141.875 310.419 123.208 310.919 104.5 310.5C104.5 287.5 104.5 264.5 104.5 241.5C104.5 240.5 104.5 239.5 104.5 238.5C105.5 238.5 106.5 238.5 107.5 238.5Z" fill="#B9DD17"/>
<path opacity="0.995" fill-rule="evenodd" clip-rule="evenodd" d="M186.5 238.5C199.837 238.333 213.171 238.5 226.5 239C234.878 240.105 241.712 243.939 247 250.5C255.111 265.817 252.278 278.651 238.5 289C242.877 295.587 247.377 302.087 252 308.5C262.515 286.12 272.348 263.453 281.5 240.5C281.973 239.094 282.973 238.427 284.5 238.5C292.42 238.185 300.253 238.518 308 239.5C318.264 262.792 328.431 286.125 338.5 309.5C329.859 310.498 321.192 310.831 312.5 310.5C311.469 306.573 310.135 302.739 308.5 299C299.482 298.168 290.482 298.335 281.5 299.5C280.167 302.833 278.833 306.167 277.5 309.5C260.167 310.833 242.833 310.833 225.5 309.5C222.205 303.742 218.539 298.242 214.5 293C212.527 292.505 210.527 292.338 208.5 292.5C208.5 298.5 208.5 304.5 208.5 310.5C200.167 310.5 191.833 310.5 183.5 310.5C183.5 287.167 183.5 263.833 183.5 240.5C183.821 238.952 184.821 238.285 186.5 238.5Z" fill="#B9DD17"/>
<path opacity="0.994" fill-rule="evenodd" clip-rule="evenodd" d="M344.5 238.5C351.833 238.5 359.167 238.5 366.5 238.5C366.5 262.5 366.5 286.5 366.5 310.5C358.167 310.5 349.833 310.5 341.5 310.5C341.5 287.5 341.5 264.5 341.5 241.5C341.5 240.5 341.5 239.5 341.5 238.5C342.5 238.5 343.5 238.5 344.5 238.5Z" fill="#B9DD17"/>
<path opacity="0.995" fill-rule="evenodd" clip-rule="evenodd" d="M424.5 241.5C424.5 240.5 424.5 239.5 424.5 238.5C425.5 238.5 426.5 238.5 427.5 238.5C434.5 238.5 441.5 238.5 448.5 238.5C448.5 262.5 448.5 286.5 448.5 310.5C441.492 310.666 434.492 310.5 427.5 310C419.357 299.556 410.857 289.389 402 279.5C401.5 289.828 401.334 300.161 401.5 310.5C393.5 310.5 385.5 310.5 377.5 310.5C377.5 286.5 377.5 262.5 377.5 238.5C384.508 238.334 391.508 238.5 398.5 239C407.119 249.074 415.619 259.241 424 269.5C424.5 260.173 424.666 250.839 424.5 241.5Z" fill="#B9DD17"/>
<path opacity="0.995" fill-rule="evenodd" clip-rule="evenodd" d="M624.5 238.5C632.528 238.169 640.528 238.502 648.5 239.5C658.43 263.191 668.763 286.691 679.5 310C670.833 310.667 662.167 310.667 653.5 310C651.865 306.261 650.531 302.427 649.5 298.5C640.167 298.5 630.833 298.5 621.5 298.5C620.863 302.578 619.53 306.411 617.5 310C609.147 310.832 600.813 310.665 592.5 309.5C602.512 286.145 612.512 262.812 622.5 239.5C622.842 238.662 623.508 238.328 624.5 238.5Z" fill="#B9DD17"/>
<path opacity="0.997" fill-rule="evenodd" clip-rule="evenodd" d="M684.5 238.5C692.167 238.5 699.833 238.5 707.5 238.5C707.5 262.5 707.5 286.5 707.5 310.5C699.167 310.5 690.833 310.5 682.5 310.5C682.5 286.833 682.5 263.167 682.5 239.5C682.842 238.662 683.508 238.328 684.5 238.5Z" fill="#B9DD17"/>
<path opacity="0.996" fill-rule="evenodd" clip-rule="evenodd" d="M763.5 268.5C763.783 269.289 764.283 269.956 765 270.5C765.808 266.973 765.641 263.64 764.5 260.5C764.5 254.167 764.5 247.833 764.5 241.5C764.5 240.5 764.5 239.5 764.5 238.5C765.5 238.5 766.5 238.5 767.5 238.5C774.833 238.5 782.167 238.5 789.5 238.5C789.5 262.5 789.5 286.5 789.5 310.5C782.492 310.666 775.492 310.5 768.5 310C759.927 300.269 751.593 290.436 743.5 280.5C743.217 279.711 742.717 279.044 742 278.5C741.5 289.161 741.333 299.828 741.5 310.5C733.5 310.5 725.5 310.5 717.5 310.5C717.5 286.5 717.5 262.5 717.5 238.5C724.863 238.169 732.197 238.503 739.5 239.5C747.523 249.186 755.523 258.853 763.5 268.5Z" fill="#B9DD17"/>
<path opacity="0.719" fill-rule="evenodd" clip-rule="evenodd" d="M143.5 256.5C138.833 256.5 134.167 256.5 129.5 256.5C129.5 259.5 129.5 262.5 129.5 265.5C133.5 265.5 137.5 265.5 141.5 265.5C137.366 266.485 133.032 266.818 128.5 266.5C128.5 262.833 128.5 259.167 128.5 255.5C133.695 255.179 138.695 255.513 143.5 256.5Z" fill="#A7A7A6"/>
<path opacity="0.343" fill-rule="evenodd" clip-rule="evenodd" d="M143.5 256.5C147.146 257.462 148.313 259.795 147 263.5C145.416 264.861 143.582 265.528 141.5 265.5C137.5 265.5 133.5 265.5 129.5 265.5C129.5 262.5 129.5 259.5 129.5 256.5C134.167 256.5 138.833 256.5 143.5 256.5Z" fill="#1D1D1B"/>
<path opacity="0.311" fill-rule="evenodd" clip-rule="evenodd" d="M208.5 257.5C213.232 257.378 217.898 257.878 222.5 259C227.902 264.064 227.569 268.73 221.5 273C217.179 273.499 212.846 273.666 208.5 273.5C208.5 268.167 208.5 262.833 208.5 257.5Z" fill="#1D1D1B"/>
<path opacity="0.384" fill-rule="evenodd" clip-rule="evenodd" d="M294.5 264.5C297.485 269.253 299.818 274.42 301.5 280C297.167 280.667 292.833 280.667 288.5 280C290.796 274.944 292.796 269.778 294.5 264.5Z" fill="#21211F"/>
<path opacity="0.379" fill-rule="evenodd" clip-rule="evenodd" d="M634.5 264.5C635.497 264.47 636.164 264.97 636.5 266C638.474 270.756 640.141 275.59 641.5 280.5C637.445 280.824 633.445 280.491 629.5 279.5C631.468 274.573 633.134 269.573 634.5 264.5Z" fill="#222220"/>
<path opacity="0.427" fill-rule="evenodd" clip-rule="evenodd" d="M764.5 260.5C765.641 263.64 765.808 266.973 765 270.5C764.283 269.956 763.783 269.289 763.5 268.5C764.473 266.052 764.806 263.385 764.5 260.5Z" fill="#A7A7A6"/>
<path opacity="0.338" fill-rule="evenodd" clip-rule="evenodd" d="M129.5 282.5C136.257 282.123 142.924 282.623 149.5 284C151.717 288.701 150.383 291.534 145.5 292.5C140.167 292.5 134.833 292.5 129.5 292.5C129.5 289.167 129.5 285.833 129.5 282.5Z" fill="#1D1D1B"/>
<path opacity="0.704" fill-rule="evenodd" clip-rule="evenodd" d="M743.5 280.5C742.833 290.5 742.167 300.5 741.5 310.5C741.333 299.828 741.5 289.161 742 278.5C742.717 279.044 743.217 279.711 743.5 280.5Z" fill="#BBBBBA"/>
<path opacity="0.412" fill-rule="evenodd" clip-rule="evenodd" d="M129.5 282.5C129.5 285.833 129.5 289.167 129.5 292.5C134.833 292.5 140.167 292.5 145.5 292.5C140.025 293.489 134.358 293.822 128.5 293.5C128.185 289.629 128.518 285.962 129.5 282.5Z" fill="#A7A7A6"/>
</svg>
